<mxfile host="65bd71144e">
    <diagram id="unyl5uTc5H1eMu6j407y" name="Page-1">
        <mxGraphModel dx="997" dy="654" grid="1" gridSize="10" guides="1" tooltips="1" connect="1" arrows="1" fold="1" page="1" pageScale="1" pageWidth="850" pageHeight="1100" math="0" shadow="0">
            <root>
                <mxCell id="0"/>
                <mxCell id="1" parent="0"/>
                <mxCell id="2" value="&lt;b&gt;&lt;font style=&quot;font-size: 14px;&quot;&gt;Client1&lt;/font&gt;&lt;/b&gt;" style="shape=umlLifeline;perimeter=lifelinePerimeter;whiteSpace=wrap;html=1;container=1;collapsible=0;recursiveResize=0;outlineConnect=0;" vertex="1" parent="1">
                    <mxGeometry x="40" y="160" width="100" height="800" as="geometry"/>
                </mxCell>
                <mxCell id="3" value="&lt;b&gt;&lt;font style=&quot;font-size: 14px;&quot;&gt;STUN Server&lt;/font&gt;&lt;/b&gt;" style="shape=umlLifeline;perimeter=lifelinePerimeter;whiteSpace=wrap;html=1;container=1;collapsible=0;recursiveResize=0;outlineConnect=0;" vertex="1" parent="1">
                    <mxGeometry x="270" y="160" width="100" height="800" as="geometry"/>
                </mxCell>
                <mxCell id="12" value="" style="shape=requiredInterface;html=1;verticalLabelPosition=bottom;sketch=0;fontSize=14;direction=north;" vertex="1" parent="3">
                    <mxGeometry x="40" y="190" width="20" height="10" as="geometry"/>
                </mxCell>
                <mxCell id="35" value="" style="endArrow=classic;html=1;fontSize=14;" edge="1" parent="3" target="4">
                    <mxGeometry width="50" height="50" relative="1" as="geometry">
                        <mxPoint x="509.68" y="359.85" as="sourcePoint"/>
                        <mxPoint x="275.0044444444446" y="359.85" as="targetPoint"/>
                        <Array as="points">
                            <mxPoint x="405.06" y="359.85"/>
                        </Array>
                    </mxGeometry>
                </mxCell>
                <mxCell id="36" value="share public ip and port" style="edgeLabel;html=1;align=center;verticalAlign=middle;resizable=0;points=[];fontSize=14;" vertex="1" connectable="0" parent="35">
                    <mxGeometry x="-0.0876" relative="1" as="geometry">
                        <mxPoint as="offset"/>
                    </mxGeometry>
                </mxCell>
                <mxCell id="41" value="" style="shape=requiredInterface;html=1;verticalLabelPosition=bottom;sketch=0;fontSize=14;direction=north;" vertex="1" parent="3">
                    <mxGeometry x="40" y="410" width="20" height="10" as="geometry"/>
                </mxCell>
                <mxCell id="42" value="" style="endArrow=classic;html=1;fontSize=14;" edge="1" parent="3" target="4">
                    <mxGeometry width="50" height="50" relative="1" as="geometry">
                        <mxPoint x="60.00000000000006" y="420" as="sourcePoint"/>
                        <mxPoint x="289.79999999999995" y="420" as="targetPoint"/>
                        <Array as="points">
                            <mxPoint x="190.3" y="420"/>
                        </Array>
                    </mxGeometry>
                </mxCell>
                <mxCell id="43" value="ask for client2 ip and port" style="edgeLabel;html=1;align=center;verticalAlign=middle;resizable=0;points=[];fontSize=14;" vertex="1" connectable="0" parent="42">
                    <mxGeometry x="0.0205" relative="1" as="geometry">
                        <mxPoint as="offset"/>
                    </mxGeometry>
                </mxCell>
                <mxCell id="47" value="" style="html=1;labelBackgroundColor=#ffffff;startArrow=none;startFill=0;startSize=6;endArrow=classic;endFill=1;endSize=6;jettySize=auto;orthogonalLoop=1;strokeWidth=1;dashed=1;fontSize=14;exitX=0;exitY=0;exitDx=0;exitDy=0;exitPerimeter=0;" edge="1" parent="3" source="49">
                    <mxGeometry width="60" height="60" relative="1" as="geometry">
                        <mxPoint x="30" y="460" as="sourcePoint"/>
                        <mxPoint x="-179.999090909091" y="460" as="targetPoint"/>
                        <Array as="points">
                            <mxPoint x="-29.590000000000003" y="460"/>
                        </Array>
                    </mxGeometry>
                </mxCell>
                <mxCell id="48" value="client2 ip and port" style="edgeLabel;html=1;align=center;verticalAlign=middle;resizable=0;points=[];fontSize=14;" vertex="1" connectable="0" parent="47">
                    <mxGeometry x="-0.0056" y="-1" relative="1" as="geometry">
                        <mxPoint as="offset"/>
                    </mxGeometry>
                </mxCell>
                <mxCell id="49" value="" style="shape=requiredInterface;html=1;verticalLabelPosition=bottom;sketch=0;fontSize=14;direction=north;" vertex="1" parent="3">
                    <mxGeometry x="40" y="450" width="20" height="10" as="geometry"/>
                </mxCell>
                <mxCell id="71" value="" style="shape=requiredInterface;html=1;verticalLabelPosition=bottom;sketch=0;fontSize=14;direction=north;" vertex="1" parent="3">
                    <mxGeometry x="40" y="600" width="20" height="10" as="geometry"/>
                </mxCell>
                <mxCell id="80" value="" style="shape=requiredInterface;html=1;verticalLabelPosition=bottom;sketch=0;fontSize=14;direction=north;" vertex="1" parent="3">
                    <mxGeometry x="40" y="680" width="20" height="10" as="geometry"/>
                </mxCell>
                <mxCell id="83" value="" style="shape=requiredInterface;html=1;verticalLabelPosition=bottom;sketch=0;fontSize=14;direction=north;" vertex="1" parent="3">
                    <mxGeometry x="40" y="640" width="20" height="10" as="geometry"/>
                </mxCell>
                <mxCell id="93" value="" style="shape=requiredInterface;html=1;verticalLabelPosition=bottom;sketch=0;fontSize=14;direction=north;" vertex="1" parent="3">
                    <mxGeometry x="40" y="720" width="20" height="10" as="geometry"/>
                </mxCell>
                <mxCell id="4" value="&lt;b&gt;&lt;font style=&quot;font-size: 14px;&quot;&gt;Signalization Server&lt;/font&gt;&lt;/b&gt;" style="shape=umlLifeline;perimeter=lifelinePerimeter;whiteSpace=wrap;html=1;container=1;collapsible=0;recursiveResize=0;outlineConnect=0;" vertex="1" parent="1">
                    <mxGeometry x="470" y="160" width="170" height="800" as="geometry"/>
                </mxCell>
                <mxCell id="18" value="" style="shape=requiredInterface;html=1;verticalLabelPosition=bottom;sketch=0;fontSize=14;direction=north;" vertex="1" parent="4">
                    <mxGeometry x="75" y="270" width="20" height="10" as="geometry"/>
                </mxCell>
                <mxCell id="28" value="" style="shape=requiredInterface;html=1;verticalLabelPosition=bottom;sketch=0;fontSize=14;direction=north;" vertex="1" parent="4">
                    <mxGeometry x="75" y="310" width="20" height="10" as="geometry"/>
                </mxCell>
                <mxCell id="72" value="" style="endArrow=none;html=1;fontSize=14;entryX=0;entryY=0;entryDx=0;entryDy=0;entryPerimeter=0;" edge="1" parent="4" target="74">
                    <mxGeometry width="50" height="50" relative="1" as="geometry">
                        <mxPoint x="-140.00282051282056" y="610" as="sourcePoint"/>
                        <mxPoint x="70" y="610" as="targetPoint"/>
                        <Array as="points">
                            <mxPoint x="70" y="610"/>
                        </Array>
                    </mxGeometry>
                </mxCell>
                <mxCell id="105" value="peer connection" style="edgeLabel;html=1;align=center;verticalAlign=middle;resizable=0;points=[];fontSize=14;" vertex="1" connectable="0" parent="72">
                    <mxGeometry x="0.0405" y="-1" relative="1" as="geometry">
                        <mxPoint y="-1" as="offset"/>
                    </mxGeometry>
                </mxCell>
                <mxCell id="74" value="" style="shape=requiredInterface;html=1;verticalLabelPosition=bottom;sketch=0;fontSize=14;direction=north;" vertex="1" parent="4">
                    <mxGeometry x="75" y="600" width="20" height="10" as="geometry"/>
                </mxCell>
                <mxCell id="79" value="" style="shape=requiredInterface;html=1;verticalLabelPosition=bottom;sketch=0;fontSize=14;direction=north;" vertex="1" parent="4">
                    <mxGeometry x="75" y="680" width="20" height="10" as="geometry"/>
                </mxCell>
                <mxCell id="82" value="" style="shape=requiredInterface;html=1;verticalLabelPosition=bottom;sketch=0;fontSize=14;direction=north;" vertex="1" parent="4">
                    <mxGeometry x="75" y="640" width="20" height="10" as="geometry"/>
                </mxCell>
                <mxCell id="88" value="" style="endArrow=none;html=1;fontSize=14;entryX=0;entryY=0;entryDx=0;entryDy=0;entryPerimeter=0;" edge="1" parent="4">
                    <mxGeometry width="50" height="50" relative="1" as="geometry">
                        <mxPoint x="94.99717948717944" y="650" as="sourcePoint"/>
                        <mxPoint x="310" y="650" as="targetPoint"/>
                        <Array as="points">
                            <mxPoint x="305" y="650"/>
                        </Array>
                    </mxGeometry>
                </mxCell>
                <mxCell id="111" value="peer connection" style="edgeLabel;html=1;align=center;verticalAlign=middle;resizable=0;points=[];fontSize=14;" vertex="1" connectable="0" parent="88">
                    <mxGeometry x="0.0937" y="1" relative="1" as="geometry">
                        <mxPoint as="offset"/>
                    </mxGeometry>
                </mxCell>
                <mxCell id="92" value="" style="shape=requiredInterface;html=1;verticalLabelPosition=bottom;sketch=0;fontSize=14;direction=north;" vertex="1" parent="4">
                    <mxGeometry x="75" y="720" width="20" height="10" as="geometry"/>
                </mxCell>
                <mxCell id="5" value="&lt;b&gt;&lt;font style=&quot;font-size: 14px;&quot;&gt;Client2&lt;/font&gt;&lt;/b&gt;" style="shape=umlLifeline;perimeter=lifelinePerimeter;whiteSpace=wrap;html=1;container=1;collapsible=0;recursiveResize=0;outlineConnect=0;" vertex="1" parent="1">
                    <mxGeometry x="730" y="160" width="100" height="800" as="geometry"/>
                </mxCell>
                <mxCell id="78" value="" style="endArrow=classic;html=1;fontSize=14;exitX=0.006;exitY=1.019;exitDx=0;exitDy=0;exitPerimeter=0;" edge="1" parent="5">
                    <mxGeometry width="50" height="50" relative="1" as="geometry">
                        <mxPoint x="-165.0000000000001" y="689.9999999999998" as="sourcePoint"/>
                        <mxPoint x="49.120000000000005" y="690.06" as="targetPoint"/>
                        <Array as="points">
                            <mxPoint x="-90.38" y="690.06"/>
                        </Array>
                    </mxGeometry>
                </mxCell>
                <mxCell id="100" value="message" style="edgeLabel;html=1;align=center;verticalAlign=middle;resizable=0;points=[];fontSize=14;" vertex="1" connectable="0" parent="78">
                    <mxGeometry x="0.0048" y="1" relative="1" as="geometry">
                        <mxPoint x="7" y="1" as="offset"/>
                    </mxGeometry>
                </mxCell>
                <mxCell id="91" value="" style="endArrow=classic;html=1;fontSize=14;exitX=0.006;exitY=1.019;exitDx=0;exitDy=0;exitPerimeter=0;" edge="1" parent="5">
                    <mxGeometry width="50" height="50" relative="1" as="geometry">
                        <mxPoint x="-165.00000000000023" y="730" as="sourcePoint"/>
                        <mxPoint x="49.11999999999989" y="730.0599999999997" as="targetPoint"/>
                        <Array as="points">
                            <mxPoint x="-90.38" y="730.06"/>
                        </Array>
                    </mxGeometry>
                </mxCell>
                <mxCell id="103" value="message" style="edgeLabel;html=1;align=center;verticalAlign=middle;resizable=0;points=[];fontSize=14;" vertex="1" connectable="0" parent="91">
                    <mxGeometry x="-0.1287" y="1" relative="1" as="geometry">
                        <mxPoint x="21" y="1" as="offset"/>
                    </mxGeometry>
                </mxCell>
                <mxCell id="6" value="" style="endArrow=classic;html=1;fontSize=14;" edge="1" parent="1">
                    <mxGeometry width="50" height="50" relative="1" as="geometry">
                        <mxPoint x="89.70000000000005" y="280" as="sourcePoint"/>
                        <mxPoint x="319.5" y="280" as="targetPoint"/>
                        <Array as="points">
                            <mxPoint x="220" y="280"/>
                        </Array>
                    </mxGeometry>
                </mxCell>
                <mxCell id="7" value="ask for public ip and port" style="edgeLabel;html=1;align=center;verticalAlign=middle;resizable=0;points=[];fontSize=14;" vertex="1" connectable="0" parent="6">
                    <mxGeometry x="0.0205" relative="1" as="geometry">
                        <mxPoint as="offset"/>
                    </mxGeometry>
                </mxCell>
                <mxCell id="9" value="" style="html=1;labelBackgroundColor=#ffffff;startArrow=none;startFill=0;startSize=6;endArrow=classic;endFill=1;endSize=6;jettySize=auto;orthogonalLoop=1;strokeWidth=1;dashed=1;fontSize=14;" edge="1" parent="1" source="3" target="2">
                    <mxGeometry width="60" height="60" relative="1" as="geometry">
                        <mxPoint x="310" y="480" as="sourcePoint"/>
                        <mxPoint x="370" y="420" as="targetPoint"/>
                        <Array as="points">
                            <mxPoint x="240" y="320"/>
                        </Array>
                    </mxGeometry>
                </mxCell>
                <mxCell id="10" value="public ip and port" style="edgeLabel;html=1;align=center;verticalAlign=middle;resizable=0;points=[];fontSize=14;" vertex="1" connectable="0" parent="9">
                    <mxGeometry x="-0.0056" y="-1" relative="1" as="geometry">
                        <mxPoint as="offset"/>
                    </mxGeometry>
                </mxCell>
                <mxCell id="11" value="" style="endArrow=classic;html=1;fontSize=14;" edge="1" parent="1" target="4">
                    <mxGeometry width="50" height="50" relative="1" as="geometry">
                        <mxPoint x="330" y="360" as="sourcePoint"/>
                        <mxPoint x="360" y="430" as="targetPoint"/>
                        <Array as="points">
                            <mxPoint x="470" y="360"/>
                        </Array>
                    </mxGeometry>
                </mxCell>
                <mxCell id="16" value="share public ip and port" style="edgeLabel;html=1;align=center;verticalAlign=middle;resizable=0;points=[];fontSize=14;" vertex="1" connectable="0" parent="11">
                    <mxGeometry x="-0.0666" y="2" relative="1" as="geometry">
                        <mxPoint as="offset"/>
                    </mxGeometry>
                </mxCell>
                <mxCell id="14" value="" style="html=1;labelBackgroundColor=#ffffff;jettySize=auto;orthogonalLoop=1;strokeWidth=1;fontSize=14;endArrow=none;endFill=0;entryX=0;entryY=0;entryDx=0;entryDy=0;entryPerimeter=0;" edge="1" parent="1" source="2" target="12">
                    <mxGeometry width="60" height="60" relative="1" as="geometry">
                        <mxPoint x="320" y="380" as="sourcePoint"/>
                        <mxPoint x="380" y="320" as="targetPoint"/>
                    </mxGeometry>
                </mxCell>
                <mxCell id="15" value="share public ip and port" style="edgeLabel;html=1;align=center;verticalAlign=middle;resizable=0;points=[];fontSize=14;" vertex="1" connectable="0" parent="14">
                    <mxGeometry x="0.0695" relative="1" as="geometry">
                        <mxPoint as="offset"/>
                    </mxGeometry>
                </mxCell>
                <mxCell id="17" value="" style="endArrow=none;html=1;fontSize=14;exitX=0.006;exitY=1.014;exitDx=0;exitDy=0;exitPerimeter=0;" edge="1" parent="1" source="18">
                    <mxGeometry width="50" height="50" relative="1" as="geometry">
                        <mxPoint x="570" y="440" as="sourcePoint"/>
                        <mxPoint x="779.5" y="440" as="targetPoint"/>
                    </mxGeometry>
                </mxCell>
                <mxCell id="24" value="ask for public ip and port" style="edgeLabel;html=1;align=center;verticalAlign=middle;resizable=0;points=[];fontSize=14;" vertex="1" connectable="0" parent="17">
                    <mxGeometry x="0.0784" relative="1" as="geometry">
                        <mxPoint as="offset"/>
                    </mxGeometry>
                </mxCell>
                <mxCell id="19" value="" style="endArrow=classic;html=1;fontSize=14;exitX=0.023;exitY=0.006;exitDx=0;exitDy=0;exitPerimeter=0;" edge="1" parent="1" source="18" target="3">
                    <mxGeometry width="50" height="50" relative="1" as="geometry">
                        <mxPoint x="550" y="440" as="sourcePoint"/>
                        <mxPoint x="570" y="430" as="targetPoint"/>
                        <Array as="points">
                            <mxPoint x="450" y="440"/>
                        </Array>
                    </mxGeometry>
                </mxCell>
                <mxCell id="23" value="ask for public ip and port" style="edgeLabel;html=1;align=center;verticalAlign=middle;resizable=0;points=[];fontSize=14;" vertex="1" connectable="0" parent="19">
                    <mxGeometry x="-0.0876" relative="1" as="geometry">
                        <mxPoint as="offset"/>
                    </mxGeometry>
                </mxCell>
                <mxCell id="26" value="" style="endArrow=none;dashed=1;html=1;fontSize=14;entryX=0.012;entryY=0.004;entryDx=0;entryDy=0;entryPerimeter=0;" edge="1" parent="1" source="3" target="28">
                    <mxGeometry width="50" height="50" relative="1" as="geometry">
                        <mxPoint x="440" y="510" as="sourcePoint"/>
                        <mxPoint x="540" y="480" as="targetPoint"/>
                        <Array as="points">
                            <mxPoint x="470" y="480"/>
                        </Array>
                    </mxGeometry>
                </mxCell>
                <mxCell id="29" value="public ip and port" style="edgeLabel;html=1;align=center;verticalAlign=middle;resizable=0;points=[];fontSize=14;" vertex="1" connectable="0" parent="26">
                    <mxGeometry x="0.2298" y="-1" relative="1" as="geometry">
                        <mxPoint as="offset"/>
                    </mxGeometry>
                </mxCell>
                <mxCell id="27" value="" style="html=1;labelBackgroundColor=#ffffff;startArrow=none;startFill=0;startSize=6;endArrow=classic;endFill=1;endSize=6;jettySize=auto;orthogonalLoop=1;strokeWidth=1;dashed=1;fontSize=14;exitX=0.004;exitY=0.995;exitDx=0;exitDy=0;exitPerimeter=0;" edge="1" parent="1" source="28" target="5">
                    <mxGeometry width="60" height="60" relative="1" as="geometry">
                        <mxPoint x="590" y="480" as="sourcePoint"/>
                        <mxPoint x="500" y="460" as="targetPoint"/>
                        <Array as="points">
                            <mxPoint x="660" y="480"/>
                        </Array>
                    </mxGeometry>
                </mxCell>
                <mxCell id="30" value="public ip and port" style="edgeLabel;html=1;align=center;verticalAlign=middle;resizable=0;points=[];fontSize=14;" vertex="1" connectable="0" parent="27">
                    <mxGeometry x="0.1566" y="2" relative="1" as="geometry">
                        <mxPoint as="offset"/>
                    </mxGeometry>
                </mxCell>
                <mxCell id="39" value="" style="html=1;labelBackgroundColor=#ffffff;jettySize=auto;orthogonalLoop=1;strokeWidth=1;fontSize=14;endArrow=none;endFill=0;entryX=0;entryY=0;entryDx=0;entryDy=0;entryPerimeter=0;" edge="1" parent="1">
                    <mxGeometry width="60" height="60" relative="1" as="geometry">
                        <mxPoint x="89.73076923076928" y="580" as="sourcePoint"/>
                        <mxPoint x="309.9999999999998" y="580" as="targetPoint"/>
                    </mxGeometry>
                </mxCell>
                <mxCell id="40" value="ask for client2 ip and port" style="edgeLabel;html=1;align=center;verticalAlign=middle;resizable=0;points=[];fontSize=14;" vertex="1" connectable="0" parent="39">
                    <mxGeometry x="0.0695" relative="1" as="geometry">
                        <mxPoint as="offset"/>
                    </mxGeometry>
                </mxCell>
                <mxCell id="50" value="" style="endArrow=none;dashed=1;html=1;fontSize=14;entryX=0.012;entryY=0.004;entryDx=0;entryDy=0;entryPerimeter=0;" edge="1" parent="1">
                    <mxGeometry width="50" height="50" relative="1" as="geometry">
                        <mxPoint x="330.0036842105262" y="620.12" as="sourcePoint"/>
                        <mxPoint x="555.1099999999999" y="620.0000000000001" as="targetPoint"/>
                        <Array as="points">
                            <mxPoint x="480.03" y="620.12"/>
                        </Array>
                    </mxGeometry>
                </mxCell>
                <mxCell id="51" value="client2 ip and port" style="edgeLabel;html=1;align=center;verticalAlign=middle;resizable=0;points=[];fontSize=14;" vertex="1" connectable="0" parent="50">
                    <mxGeometry x="0.2298" y="-1" relative="1" as="geometry">
                        <mxPoint x="-28" y="-1" as="offset"/>
                    </mxGeometry>
                </mxCell>
                <mxCell id="52" value="" style="endArrow=classic;html=1;fontSize=14;" edge="1" parent="1" source="5" target="4">
                    <mxGeometry width="50" height="50" relative="1" as="geometry">
                        <mxPoint x="774.9200000000003" y="659.9999999999999" as="sourcePoint"/>
                        <mxPoint x="560" y="660" as="targetPoint"/>
                        <Array as="points">
                            <mxPoint x="670.3" y="660"/>
                        </Array>
                    </mxGeometry>
                </mxCell>
                <mxCell id="53" value="ask for client1 ip and port" style="edgeLabel;html=1;align=center;verticalAlign=middle;resizable=0;points=[];fontSize=14;" vertex="1" connectable="0" parent="52">
                    <mxGeometry x="-0.0876" relative="1" as="geometry">
                        <mxPoint as="offset"/>
                    </mxGeometry>
                </mxCell>
                <mxCell id="54" value="" style="html=1;labelBackgroundColor=#ffffff;startArrow=none;startFill=0;startSize=6;endArrow=classic;endFill=1;endSize=6;jettySize=auto;orthogonalLoop=1;strokeWidth=1;dashed=1;fontSize=14;" edge="1" parent="1">
                    <mxGeometry width="60" height="60" relative="1" as="geometry">
                        <mxPoint x="559.9979797979798" y="699.9999999999999" as="sourcePoint"/>
                        <mxPoint x="784.2" y="699.9999999999999" as="targetPoint"/>
                        <Array as="points">
                            <mxPoint x="674.7" y="700"/>
                        </Array>
                    </mxGeometry>
                </mxCell>
                <mxCell id="56" value="client1 ip and port" style="edgeLabel;html=1;align=center;verticalAlign=middle;resizable=0;points=[];fontSize=14;" vertex="1" connectable="0" parent="54">
                    <mxGeometry x="-0.0379" y="1" relative="1" as="geometry">
                        <mxPoint as="offset"/>
                    </mxGeometry>
                </mxCell>
                <mxCell id="70" value="" style="endArrow=none;html=1;fontSize=14;" edge="1" parent="1">
                    <mxGeometry width="50" height="50" relative="1" as="geometry">
                        <mxPoint x="89.92857142857133" y="770" as="sourcePoint"/>
                        <mxPoint x="310" y="770" as="targetPoint"/>
                    </mxGeometry>
                </mxCell>
                <mxCell id="104" value="peer connection" style="edgeLabel;html=1;align=center;verticalAlign=middle;resizable=0;points=[];fontSize=14;" vertex="1" connectable="0" parent="70">
                    <mxGeometry x="-0.073" y="1" relative="1" as="geometry">
                        <mxPoint as="offset"/>
                    </mxGeometry>
                </mxCell>
                <mxCell id="75" value="" style="endArrow=classic;html=1;fontSize=14;exitX=0.006;exitY=1.019;exitDx=0;exitDy=0;exitPerimeter=0;" edge="1" parent="1" source="74">
                    <mxGeometry width="50" height="50" relative="1" as="geometry">
                        <mxPoint x="570" y="770" as="sourcePoint"/>
                        <mxPoint x="779.5" y="770" as="targetPoint"/>
                        <Array as="points">
                            <mxPoint x="640" y="770"/>
                        </Array>
                    </mxGeometry>
                </mxCell>
                <mxCell id="106" value="peer connection" style="edgeLabel;html=1;align=center;verticalAlign=middle;resizable=0;points=[];fontSize=14;" vertex="1" connectable="0" parent="75">
                    <mxGeometry x="-0.0455" y="2" relative="1" as="geometry">
                        <mxPoint as="offset"/>
                    </mxGeometry>
                </mxCell>
                <mxCell id="76" value="" style="endArrow=none;html=1;fontSize=14;" edge="1" parent="1">
                    <mxGeometry width="50" height="50" relative="1" as="geometry">
                        <mxPoint x="90.00393939393949" y="850" as="sourcePoint"/>
                        <mxPoint x="310.11" y="850" as="targetPoint"/>
                    </mxGeometry>
                </mxCell>
                <mxCell id="98" value="message" style="edgeLabel;html=1;align=center;verticalAlign=middle;resizable=0;points=[];fontSize=14;" vertex="1" connectable="0" parent="76">
                    <mxGeometry x="0.2046" y="-2" relative="1" as="geometry">
                        <mxPoint x="-23" y="-2" as="offset"/>
                    </mxGeometry>
                </mxCell>
                <mxCell id="77" value="" style="endArrow=none;html=1;fontSize=14;entryX=0;entryY=0;entryDx=0;entryDy=0;entryPerimeter=0;" edge="1" parent="1">
                    <mxGeometry width="50" height="50" relative="1" as="geometry">
                        <mxPoint x="329.99717948717944" y="850" as="sourcePoint"/>
                        <mxPoint x="545" y="850" as="targetPoint"/>
                        <Array as="points">
                            <mxPoint x="540" y="850"/>
                        </Array>
                    </mxGeometry>
                </mxCell>
                <mxCell id="99" value="message" style="edgeLabel;html=1;align=center;verticalAlign=middle;resizable=0;points=[];fontSize=14;" vertex="1" connectable="0" parent="77">
                    <mxGeometry x="-0.1322" y="-1" relative="1" as="geometry">
                        <mxPoint x="6" y="-1" as="offset"/>
                    </mxGeometry>
                </mxCell>
                <mxCell id="81" value="" style="endArrow=none;html=1;fontSize=14;entryX=0;entryY=0;entryDx=0;entryDy=0;entryPerimeter=0;" edge="1" parent="1">
                    <mxGeometry width="50" height="50" relative="1" as="geometry">
                        <mxPoint x="329.99717948717944" y="810" as="sourcePoint"/>
                        <mxPoint x="545" y="810" as="targetPoint"/>
                        <Array as="points">
                            <mxPoint x="540" y="810"/>
                        </Array>
                    </mxGeometry>
                </mxCell>
                <mxCell id="110" value="peer connection" style="edgeLabel;html=1;align=center;verticalAlign=middle;resizable=0;points=[];fontSize=14;" vertex="1" connectable="0" parent="81">
                    <mxGeometry x="0.0605" y="-1" relative="1" as="geometry">
                        <mxPoint as="offset"/>
                    </mxGeometry>
                </mxCell>
                <mxCell id="84" value="" style="html=1;labelBackgroundColor=#ffffff;endArrow=classic;endFill=1;endSize=6;jettySize=auto;orthogonalLoop=1;strokeWidth=1;fontSize=14;exitX=0.007;exitY=0.014;exitDx=0;exitDy=0;exitPerimeter=0;" edge="1" parent="1" source="83">
                    <mxGeometry width="60" height="60" relative="1" as="geometry">
                        <mxPoint x="320" y="860" as="sourcePoint"/>
                        <mxPoint x="89.92857142857133" y="810" as="targetPoint"/>
                        <Array as="points">
                            <mxPoint x="220" y="810"/>
                        </Array>
                    </mxGeometry>
                </mxCell>
                <mxCell id="112" value="peer connection" style="edgeLabel;html=1;align=center;verticalAlign=middle;resizable=0;points=[];fontSize=14;" vertex="1" connectable="0" parent="84">
                    <mxGeometry x="0.0742" relative="1" as="geometry">
                        <mxPoint as="offset"/>
                    </mxGeometry>
                </mxCell>
                <mxCell id="89" value="" style="html=1;labelBackgroundColor=#ffffff;endArrow=classic;endFill=1;endSize=6;jettySize=auto;orthogonalLoop=1;strokeWidth=1;fontSize=14;exitX=0.007;exitY=0.014;exitDx=0;exitDy=0;exitPerimeter=0;" edge="1" parent="1">
                    <mxGeometry width="60" height="60" relative="1" as="geometry">
                        <mxPoint x="310.4899999999997" y="889.9999999999998" as="sourcePoint"/>
                        <mxPoint x="89.99571428571423" y="890.0699999999999" as="targetPoint"/>
                        <Array as="points">
                            <mxPoint x="220.21" y="890.0699999999999"/>
                        </Array>
                    </mxGeometry>
                </mxCell>
                <mxCell id="101" value="message" style="edgeLabel;html=1;align=center;verticalAlign=middle;resizable=0;points=[];fontSize=14;" vertex="1" connectable="0" parent="89">
                    <mxGeometry x="0.0501" y="-1" relative="1" as="geometry">
                        <mxPoint x="5" y="1" as="offset"/>
                    </mxGeometry>
                </mxCell>
                <mxCell id="90" value="" style="endArrow=none;html=1;fontSize=14;entryX=0;entryY=0;entryDx=0;entryDy=0;entryPerimeter=0;" edge="1" parent="1">
                    <mxGeometry width="50" height="50" relative="1" as="geometry">
                        <mxPoint x="329.9971794871792" y="890" as="sourcePoint"/>
                        <mxPoint x="544.9999999999998" y="890" as="targetPoint"/>
                        <Array as="points">
                            <mxPoint x="540" y="890"/>
                        </Array>
                    </mxGeometry>
                </mxCell>
                <mxCell id="102" value="message" style="edgeLabel;html=1;align=center;verticalAlign=middle;resizable=0;points=[];fontSize=14;" vertex="1" connectable="0" parent="90">
                    <mxGeometry x="0.1003" relative="1" as="geometry">
                        <mxPoint x="-19" as="offset"/>
                    </mxGeometry>
                </mxCell>
            </root>
        </mxGraphModel>
    </diagram>
</mxfile>